<?xml version="1.0" encoding="UTF-8"?>
<svg xmlns="http://www.w3.org/2000/svg" width="308" height="308" viewBox="0 0 308 308">
<g >
<rect x="0" y="0" width="308" height="308" fill="white" />
</g>
<g id="walls" stroke="black" stroke-width="2" fill="none">
<line x1="10" y1="10" x2="34" y2="10"/>
<line x1="10" y1="10" x2="10" y2="34"/>
<line x1="34" y1="10" x2="58" y2="10"/>
<line x1="58" y1="10" x2="82" y2="10"/>
<line x1="82" y1="10" x2="106" y2="10"/>
<line x1="106" y1="10" x2="130" y2="10"/>
<line x1="130" y1="10" x2="154" y2="10"/>
<line x1="154" y1="10" x2="178" y2="10"/>
<line x1="178" y1="10" x2="202" y2="10"/>
<line x1="202" y1="10" x2="226" y2="10"/>
<line x1="226" y1="10" x2="250" y2="10"/>
<line x1="250" y1="10" x2="274" y2="10"/>
<line x1="274" y1="10" x2="298" y2="10"/>
<line x1="10" y1="34" x2="10" y2="58"/>
<line x1="178" y1="34" x2="178" y2="58"/>
<line x1="202" y1="34" x2="226" y2="34"/>
<line x1="226" y1="34" x2="250" y2="34"/>
<line x1="10" y1="58" x2="10" y2="82"/>
<line x1="34" y1="58" x2="58" y2="58"/>
<line x1="58" y1="58" x2="82" y2="58"/>
<line x1="82" y1="58" x2="106" y2="58"/>
<line x1="154" y1="58" x2="178" y2="58"/>
<line x1="250" y1="58" x2="274" y2="58"/>
<line x1="10" y1="82" x2="10" y2="106"/>
<line x1="34" y1="82" x2="58" y2="82"/>
<line x1="106" y1="82" x2="106" y2="106"/>
<line x1="178" y1="82" x2="178" y2="106"/>
<line x1="202" y1="82" x2="202" y2="106"/>
<line x1="226" y1="82" x2="250" y2="82"/>
<line x1="10" y1="106" x2="10" y2="130"/>
<line x1="58" y1="106" x2="58" y2="130"/>
<line x1="106" y1="106" x2="130" y2="106"/>
<line x1="130" y1="106" x2="130" y2="130"/>
<line x1="154" y1="106" x2="178" y2="106"/>
<line x1="202" y1="106" x2="202" y2="130"/>
<line x1="226" y1="106" x2="250" y2="106"/>
<line x1="250" y1="106" x2="250" y2="130"/>
<line x1="10" y1="130" x2="10" y2="154"/>
<line x1="106" y1="130" x2="106" y2="154"/>
<line x1="178" y1="130" x2="178" y2="154"/>
<line x1="250" y1="130" x2="274" y2="130"/>
<line x1="10" y1="154" x2="10" y2="178"/>
<line x1="106" y1="154" x2="130" y2="154"/>
<line x1="130" y1="154" x2="154" y2="154"/>
<line x1="226" y1="154" x2="250" y2="154"/>
<line x1="274" y1="154" x2="274" y2="178"/>
<line x1="10" y1="178" x2="10" y2="202"/>
<line x1="34" y1="178" x2="34" y2="202"/>
<line x1="106" y1="178" x2="130" y2="178"/>
<line x1="154" y1="178" x2="178" y2="178"/>
<line x1="178" y1="178" x2="202" y2="178"/>
<line x1="202" y1="178" x2="226" y2="178"/>
<line x1="250" y1="178" x2="274" y2="178"/>
<line x1="10" y1="202" x2="10" y2="226"/>
<line x1="34" y1="202" x2="58" y2="202"/>
<line x1="130" y1="202" x2="130" y2="226"/>
<line x1="178" y1="202" x2="202" y2="202"/>
<line x1="10" y1="226" x2="10" y2="250"/>
<line x1="82" y1="226" x2="82" y2="250"/>
<line x1="154" y1="226" x2="178" y2="226"/>
<line x1="202" y1="226" x2="202" y2="250"/>
<line x1="226" y1="226" x2="250" y2="226"/>
<line x1="10" y1="250" x2="10" y2="274"/>
<line x1="34" y1="250" x2="58" y2="250"/>
<line x1="82" y1="250" x2="106" y2="250"/>
<line x1="154" y1="250" x2="178" y2="250"/>
<line x1="178" y1="250" x2="178" y2="274"/>
<line x1="226" y1="250" x2="226" y2="274"/>
<line x1="274" y1="250" x2="274" y2="274"/>
<line x1="10" y1="274" x2="10" y2="298"/>
<line x1="82" y1="274" x2="106" y2="274"/>
<line x1="106" y1="274" x2="130" y2="274"/>
<line x1="154" y1="274" x2="154" y2="298"/>
<line x1="226" y1="274" x2="250" y2="274"/>
</g>
<g id="maze-border" >
<rect x="10" y="10" width="288" height="288" fill="none" stroke="black" stroke-width="2"/>
</g>
</svg>

