<?xml version="1.0" encoding="UTF-8"?>
<svg xmlns="http://www.w3.org/2000/svg" width="308" height="308" viewBox="0 0 308 308">
<g >
<rect x="0" y="0" width="308" height="308" fill="white" />
</g>
<g id="grid" stroke="#dddddd" stroke-width="1" fill="none">
<line x1="10" y1="10" x2="10" y2="298"/>
<line x1="34" y1="10" x2="34" y2="298"/>
<line x1="58" y1="10" x2="58" y2="298"/>
<line x1="82" y1="10" x2="82" y2="298"/>
<line x1="106" y1="10" x2="106" y2="298"/>
<line x1="130" y1="10" x2="130" y2="298"/>
<line x1="154" y1="10" x2="154" y2="298"/>
<line x1="178" y1="10" x2="178" y2="298"/>
<line x1="202" y1="10" x2="202" y2="298"/>
<line x1="226" y1="10" x2="226" y2="298"/>
<line x1="250" y1="10" x2="250" y2="298"/>
<line x1="274" y1="10" x2="274" y2="298"/>
<line x1="298" y1="10" x2="298" y2="298"/>
<line x1="10" y1="10" x2="298" y2="10"/>
<line x1="10" y1="34" x2="298" y2="34"/>
<line x1="10" y1="58" x2="298" y2="58"/>
<line x1="10" y1="82" x2="298" y2="82"/>
<line x1="10" y1="106" x2="298" y2="106"/>
<line x1="10" y1="130" x2="298" y2="130"/>
<line x1="10" y1="154" x2="298" y2="154"/>
<line x1="10" y1="178" x2="298" y2="178"/>
<line x1="10" y1="202" x2="298" y2="202"/>
<line x1="10" y1="226" x2="298" y2="226"/>
<line x1="10" y1="250" x2="298" y2="250"/>
<line x1="10" y1="274" x2="298" y2="274"/>
<line x1="10" y1="298" x2="298" y2="298"/>
</g>
<g id="locations" >
<g id="hospital" fill="#d62728" fill-opacity="0.25" stroke="none">
<rect x="58" y="154" width="24" height="24" fill="#d62728" />
<rect x="58" y="178" width="24" height="24" fill="#d62728" />
</g>
<g id="arsenal" fill="#ffcc00" fill-opacity="0.25" stroke="none">
<rect x="106" y="202" width="24" height="24" fill="#ffcc00" />
<rect x="82" y="202" width="24" height="24" fill="#ffcc00" />
<rect x="106" y="178" width="24" height="24" fill="#ffcc00" />
</g>
</g>
<g id="coords" opacity="0.08">
<text x="22" y="22.3" fill="#000000" font-size="6" text-anchor="middle" dominant-baseline="middle" font-family="monospace" >0,0</text>
<text x="46" y="22.3" fill="#000000" font-size="6" text-anchor="middle" dominant-baseline="middle" font-family="monospace" >1,0</text>
<text x="70" y="22.3" fill="#000000" font-size="6" text-anchor="middle" dominant-baseline="middle" font-family="monospace" >2,0</text>
<text x="94" y="22.3" fill="#000000" font-size="6" text-anchor="middle" dominant-baseline="middle" font-family="monospace" >3,0</text>
<text x="118" y="22.3" fill="#000000" font-size="6" text-anchor="middle" dominant-baseline="middle" font-family="monospace" >4,0</text>
<text x="142" y="22.3" fill="#000000" font-size="6" text-anchor="middle" dominant-baseline="middle" font-family="monospace" >5,0</text>
<text x="166" y="22.3" fill="#000000" font-size="6" text-anchor="middle" dominant-baseline="middle" font-family="monospace" >6,0</text>
<text x="190" y="22.3" fill="#000000" font-size="6" text-anchor="middle" dominant-baseline="middle" font-family="monospace" >7,0</text>
<text x="214" y="22.3" fill="#000000" font-size="6" text-anchor="middle" dominant-baseline="middle" font-family="monospace" >8,0</text>
<text x="238" y="22.3" fill="#000000" font-size="6" text-anchor="middle" dominant-baseline="middle" font-family="monospace" >9,0</text>
<text x="262" y="22.3" fill="#000000" font-size="6" text-anchor="middle" dominant-baseline="middle" font-family="monospace" >10,0</text>
<text x="286" y="22.3" fill="#000000" font-size="6" text-anchor="middle" dominant-baseline="middle" font-family="monospace" >11,0</text>
<text x="22" y="46.3" fill="#000000" font-size="6" text-anchor="middle" dominant-baseline="middle" font-family="monospace" >0,1</text>
<text x="46" y="46.3" fill="#000000" font-size="6" text-anchor="middle" dominant-baseline="middle" font-family="monospace" >1,1</text>
<text x="70" y="46.3" fill="#000000" font-size="6" text-anchor="middle" dominant-baseline="middle" font-family="monospace" >2,1</text>
<text x="94" y="46.3" fill="#000000" font-size="6" text-anchor="middle" dominant-baseline="middle" font-family="monospace" >3,1</text>
<text x="118" y="46.3" fill="#000000" font-size="6" text-anchor="middle" dominant-baseline="middle" font-family="monospace" >4,1</text>
<text x="142" y="46.3" fill="#000000" font-size="6" text-anchor="middle" dominant-baseline="middle" font-family="monospace" >5,1</text>
<text x="166" y="46.3" fill="#000000" font-size="6" text-anchor="middle" dominant-baseline="middle" font-family="monospace" >6,1</text>
<text x="190" y="46.3" fill="#000000" font-size="6" text-anchor="middle" dominant-baseline="middle" font-family="monospace" >7,1</text>
<text x="214" y="46.3" fill="#000000" font-size="6" text-anchor="middle" dominant-baseline="middle" font-family="monospace" >8,1</text>
<text x="238" y="46.3" fill="#000000" font-size="6" text-anchor="middle" dominant-baseline="middle" font-family="monospace" >9,1</text>
<text x="262" y="46.3" fill="#000000" font-size="6" text-anchor="middle" dominant-baseline="middle" font-family="monospace" >10,1</text>
<text x="286" y="46.3" fill="#000000" font-size="6" text-anchor="middle" dominant-baseline="middle" font-family="monospace" >11,1</text>
<text x="22" y="70.3" fill="#000000" font-size="6" text-anchor="middle" dominant-baseline="middle" font-family="monospace" >0,2</text>
<text x="46" y="70.3" fill="#000000" font-size="6" text-anchor="middle" dominant-baseline="middle" font-family="monospace" >1,2</text>
<text x="70" y="70.3" fill="#000000" font-size="6" text-anchor="middle" dominant-baseline="middle" font-family="monospace" >2,2</text>
<text x="94" y="70.3" fill="#000000" font-size="6" text-anchor="middle" dominant-baseline="middle" font-family="monospace" >3,2</text>
<text x="118" y="70.3" fill="#000000" font-size="6" text-anchor="middle" dominant-baseline="middle" font-family="monospace" >4,2</text>
<text x="142" y="70.3" fill="#000000" font-size="6" text-anchor="middle" dominant-baseline="middle" font-family="monospace" >5,2</text>
<text x="166" y="70.3" fill="#000000" font-size="6" text-anchor="middle" dominant-baseline="middle" font-family="monospace" >6,2</text>
<text x="190" y="70.3" fill="#000000" font-size="6" text-anchor="middle" dominant-baseline="middle" font-family="monospace" >7,2</text>
<text x="214" y="70.3" fill="#000000" font-size="6" text-anchor="middle" dominant-baseline="middle" font-family="monospace" >8,2</text>
<text x="238" y="70.3" fill="#000000" font-size="6" text-anchor="middle" dominant-baseline="middle" font-family="monospace" >9,2</text>
<text x="262" y="70.3" fill="#000000" font-size="6" text-anchor="middle" dominant-baseline="middle" font-family="monospace" >10,2</text>
<text x="286" y="70.3" fill="#000000" font-size="6" text-anchor="middle" dominant-baseline="middle" font-family="monospace" >11,2</text>
<text x="22" y="94.3" fill="#000000" font-size="6" text-anchor="middle" dominant-baseline="middle" font-family="monospace" >0,3</text>
<text x="46" y="94.3" fill="#000000" font-size="6" text-anchor="middle" dominant-baseline="middle" font-family="monospace" >1,3</text>
<text x="70" y="94.3" fill="#000000" font-size="6" text-anchor="middle" dominant-baseline="middle" font-family="monospace" >2,3</text>
<text x="94" y="94.3" fill="#000000" font-size="6" text-anchor="middle" dominant-baseline="middle" font-family="monospace" >3,3</text>
<text x="118" y="94.3" fill="#000000" font-size="6" text-anchor="middle" dominant-baseline="middle" font-family="monospace" >4,3</text>
<text x="142" y="94.3" fill="#000000" font-size="6" text-anchor="middle" dominant-baseline="middle" font-family="monospace" >5,3</text>
<text x="166" y="94.3" fill="#000000" font-size="6" text-anchor="middle" dominant-baseline="middle" font-family="monospace" >6,3</text>
<text x="190" y="94.3" fill="#000000" font-size="6" text-anchor="middle" dominant-baseline="middle" font-family="monospace" >7,3</text>
<text x="214" y="94.3" fill="#000000" font-size="6" text-anchor="middle" dominant-baseline="middle" font-family="monospace" >8,3</text>
<text x="238" y="94.3" fill="#000000" font-size="6" text-anchor="middle" dominant-baseline="middle" font-family="monospace" >9,3</text>
<text x="262" y="94.3" fill="#000000" font-size="6" text-anchor="middle" dominant-baseline="middle" font-family="monospace" >10,3</text>
<text x="286" y="94.3" fill="#000000" font-size="6" text-anchor="middle" dominant-baseline="middle" font-family="monospace" >11,3</text>
<text x="22" y="118.3" fill="#000000" font-size="6" text-anchor="middle" dominant-baseline="middle" font-family="monospace" >0,4</text>
<text x="46" y="118.3" fill="#000000" font-size="6" text-anchor="middle" dominant-baseline="middle" font-family="monospace" >1,4</text>
<text x="70" y="118.3" fill="#000000" font-size="6" text-anchor="middle" dominant-baseline="middle" font-family="monospace" >2,4</text>
<text x="94" y="118.3" fill="#000000" font-size="6" text-anchor="middle" dominant-baseline="middle" font-family="monospace" >3,4</text>
<text x="118" y="118.3" fill="#000000" font-size="6" text-anchor="middle" dominant-baseline="middle" font-family="monospace" >4,4</text>
<text x="142" y="118.3" fill="#000000" font-size="6" text-anchor="middle" dominant-baseline="middle" font-family="monospace" >5,4</text>
<text x="166" y="118.3" fill="#000000" font-size="6" text-anchor="middle" dominant-baseline="middle" font-family="monospace" >6,4</text>
<text x="190" y="118.3" fill="#000000" font-size="6" text-anchor="middle" dominant-baseline="middle" font-family="monospace" >7,4</text>
<text x="214" y="118.3" fill="#000000" font-size="6" text-anchor="middle" dominant-baseline="middle" font-family="monospace" >8,4</text>
<text x="238" y="118.3" fill="#000000" font-size="6" text-anchor="middle" dominant-baseline="middle" font-family="monospace" >9,4</text>
<text x="262" y="118.3" fill="#000000" font-size="6" text-anchor="middle" dominant-baseline="middle" font-family="monospace" >10,4</text>
<text x="286" y="118.3" fill="#000000" font-size="6" text-anchor="middle" dominant-baseline="middle" font-family="monospace" >11,4</text>
<text x="22" y="142.3" fill="#000000" font-size="6" text-anchor="middle" dominant-baseline="middle" font-family="monospace" >0,5</text>
<text x="46" y="142.3" fill="#000000" font-size="6" text-anchor="middle" dominant-baseline="middle" font-family="monospace" >1,5</text>
<text x="70" y="142.3" fill="#000000" font-size="6" text-anchor="middle" dominant-baseline="middle" font-family="monospace" >2,5</text>
<text x="94" y="142.3" fill="#000000" font-size="6" text-anchor="middle" dominant-baseline="middle" font-family="monospace" >3,5</text>
<text x="118" y="142.3" fill="#000000" font-size="6" text-anchor="middle" dominant-baseline="middle" font-family="monospace" >4,5</text>
<text x="142" y="142.3" fill="#000000" font-size="6" text-anchor="middle" dominant-baseline="middle" font-family="monospace" >5,5</text>
<text x="166" y="142.3" fill="#000000" font-size="6" text-anchor="middle" dominant-baseline="middle" font-family="monospace" >6,5</text>
<text x="190" y="142.3" fill="#000000" font-size="6" text-anchor="middle" dominant-baseline="middle" font-family="monospace" >7,5</text>
<text x="214" y="142.3" fill="#000000" font-size="6" text-anchor="middle" dominant-baseline="middle" font-family="monospace" >8,5</text>
<text x="238" y="142.3" fill="#000000" font-size="6" text-anchor="middle" dominant-baseline="middle" font-family="monospace" >9,5</text>
<text x="262" y="142.3" fill="#000000" font-size="6" text-anchor="middle" dominant-baseline="middle" font-family="monospace" >10,5</text>
<text x="286" y="142.3" fill="#000000" font-size="6" text-anchor="middle" dominant-baseline="middle" font-family="monospace" >11,5</text>
<text x="22" y="166.3" fill="#000000" font-size="6" text-anchor="middle" dominant-baseline="middle" font-family="monospace" >0,6</text>
<text x="46" y="166.3" fill="#000000" font-size="6" text-anchor="middle" dominant-baseline="middle" font-family="monospace" >1,6</text>
<text x="70" y="166.3" fill="#000000" font-size="6" text-anchor="middle" dominant-baseline="middle" font-family="monospace" >2,6</text>
<text x="94" y="166.3" fill="#000000" font-size="6" text-anchor="middle" dominant-baseline="middle" font-family="monospace" >3,6</text>
<text x="118" y="166.3" fill="#000000" font-size="6" text-anchor="middle" dominant-baseline="middle" font-family="monospace" >4,6</text>
<text x="142" y="166.3" fill="#000000" font-size="6" text-anchor="middle" dominant-baseline="middle" font-family="monospace" >5,6</text>
<text x="166" y="166.3" fill="#000000" font-size="6" text-anchor="middle" dominant-baseline="middle" font-family="monospace" >6,6</text>
<text x="190" y="166.3" fill="#000000" font-size="6" text-anchor="middle" dominant-baseline="middle" font-family="monospace" >7,6</text>
<text x="214" y="166.3" fill="#000000" font-size="6" text-anchor="middle" dominant-baseline="middle" font-family="monospace" >8,6</text>
<text x="238" y="166.3" fill="#000000" font-size="6" text-anchor="middle" dominant-baseline="middle" font-family="monospace" >9,6</text>
<text x="262" y="166.3" fill="#000000" font-size="6" text-anchor="middle" dominant-baseline="middle" font-family="monospace" >10,6</text>
<text x="286" y="166.3" fill="#000000" font-size="6" text-anchor="middle" dominant-baseline="middle" font-family="monospace" >11,6</text>
<text x="22" y="190.3" fill="#000000" font-size="6" text-anchor="middle" dominant-baseline="middle" font-family="monospace" >0,7</text>
<text x="46" y="190.3" fill="#000000" font-size="6" text-anchor="middle" dominant-baseline="middle" font-family="monospace" >1,7</text>
<text x="70" y="190.3" fill="#000000" font-size="6" text-anchor="middle" dominant-baseline="middle" font-family="monospace" >2,7</text>
<text x="94" y="190.3" fill="#000000" font-size="6" text-anchor="middle" dominant-baseline="middle" font-family="monospace" >3,7</text>
<text x="118" y="190.3" fill="#000000" font-size="6" text-anchor="middle" dominant-baseline="middle" font-family="monospace" >4,7</text>
<text x="142" y="190.3" fill="#000000" font-size="6" text-anchor="middle" dominant-baseline="middle" font-family="monospace" >5,7</text>
<text x="166" y="190.3" fill="#000000" font-size="6" text-anchor="middle" dominant-baseline="middle" font-family="monospace" >6,7</text>
<text x="190" y="190.3" fill="#000000" font-size="6" text-anchor="middle" dominant-baseline="middle" font-family="monospace" >7,7</text>
<text x="214" y="190.3" fill="#000000" font-size="6" text-anchor="middle" dominant-baseline="middle" font-family="monospace" >8,7</text>
<text x="238" y="190.3" fill="#000000" font-size="6" text-anchor="middle" dominant-baseline="middle" font-family="monospace" >9,7</text>
<text x="262" y="190.3" fill="#000000" font-size="6" text-anchor="middle" dominant-baseline="middle" font-family="monospace" >10,7</text>
<text x="286" y="190.3" fill="#000000" font-size="6" text-anchor="middle" dominant-baseline="middle" font-family="monospace" >11,7</text>
<text x="22" y="214.3" fill="#000000" font-size="6" text-anchor="middle" dominant-baseline="middle" font-family="monospace" >0,8</text>
<text x="46" y="214.3" fill="#000000" font-size="6" text-anchor="middle" dominant-baseline="middle" font-family="monospace" >1,8</text>
<text x="70" y="214.3" fill="#000000" font-size="6" text-anchor="middle" dominant-baseline="middle" font-family="monospace" >2,8</text>
<text x="94" y="214.3" fill="#000000" font-size="6" text-anchor="middle" dominant-baseline="middle" font-family="monospace" >3,8</text>
<text x="118" y="214.3" fill="#000000" font-size="6" text-anchor="middle" dominant-baseline="middle" font-family="monospace" >4,8</text>
<text x="142" y="214.3" fill="#000000" font-size="6" text-anchor="middle" dominant-baseline="middle" font-family="monospace" >5,8</text>
<text x="166" y="214.3" fill="#000000" font-size="6" text-anchor="middle" dominant-baseline="middle" font-family="monospace" >6,8</text>
<text x="190" y="214.3" fill="#000000" font-size="6" text-anchor="middle" dominant-baseline="middle" font-family="monospace" >7,8</text>
<text x="214" y="214.3" fill="#000000" font-size="6" text-anchor="middle" dominant-baseline="middle" font-family="monospace" >8,8</text>
<text x="238" y="214.3" fill="#000000" font-size="6" text-anchor="middle" dominant-baseline="middle" font-family="monospace" >9,8</text>
<text x="262" y="214.3" fill="#000000" font-size="6" text-anchor="middle" dominant-baseline="middle" font-family="monospace" >10,8</text>
<text x="286" y="214.3" fill="#000000" font-size="6" text-anchor="middle" dominant-baseline="middle" font-family="monospace" >11,8</text>
<text x="22" y="238.3" fill="#000000" font-size="6" text-anchor="middle" dominant-baseline="middle" font-family="monospace" >0,9</text>
<text x="46" y="238.3" fill="#000000" font-size="6" text-anchor="middle" dominant-baseline="middle" font-family="monospace" >1,9</text>
<text x="70" y="238.3" fill="#000000" font-size="6" text-anchor="middle" dominant-baseline="middle" font-family="monospace" >2,9</text>
<text x="94" y="238.3" fill="#000000" font-size="6" text-anchor="middle" dominant-baseline="middle" font-family="monospace" >3,9</text>
<text x="118" y="238.3" fill="#000000" font-size="6" text-anchor="middle" dominant-baseline="middle" font-family="monospace" >4,9</text>
<text x="142" y="238.3" fill="#000000" font-size="6" text-anchor="middle" dominant-baseline="middle" font-family="monospace" >5,9</text>
<text x="166" y="238.3" fill="#000000" font-size="6" text-anchor="middle" dominant-baseline="middle" font-family="monospace" >6,9</text>
<text x="190" y="238.3" fill="#000000" font-size="6" text-anchor="middle" dominant-baseline="middle" font-family="monospace" >7,9</text>
<text x="214" y="238.3" fill="#000000" font-size="6" text-anchor="middle" dominant-baseline="middle" font-family="monospace" >8,9</text>
<text x="238" y="238.3" fill="#000000" font-size="6" text-anchor="middle" dominant-baseline="middle" font-family="monospace" >9,9</text>
<text x="262" y="238.3" fill="#000000" font-size="6" text-anchor="middle" dominant-baseline="middle" font-family="monospace" >10,9</text>
<text x="286" y="238.3" fill="#000000" font-size="6" text-anchor="middle" dominant-baseline="middle" font-family="monospace" >11,9</text>
<text x="22" y="262.3" fill="#000000" font-size="6" text-anchor="middle" dominant-baseline="middle" font-family="monospace" >0,10</text>
<text x="46" y="262.3" fill="#000000" font-size="6" text-anchor="middle" dominant-baseline="middle" font-family="monospace" >1,10</text>
<text x="70" y="262.3" fill="#000000" font-size="6" text-anchor="middle" dominant-baseline="middle" font-family="monospace" >2,10</text>
<text x="94" y="262.3" fill="#000000" font-size="6" text-anchor="middle" dominant-baseline="middle" font-family="monospace" >3,10</text>
<text x="118" y="262.3" fill="#000000" font-size="6" text-anchor="middle" dominant-baseline="middle" font-family="monospace" >4,10</text>
<text x="142" y="262.3" fill="#000000" font-size="6" text-anchor="middle" dominant-baseline="middle" font-family="monospace" >5,10</text>
<text x="166" y="262.3" fill="#000000" font-size="6" text-anchor="middle" dominant-baseline="middle" font-family="monospace" >6,10</text>
<text x="190" y="262.3" fill="#000000" font-size="6" text-anchor="middle" dominant-baseline="middle" font-family="monospace" >7,10</text>
<text x="214" y="262.3" fill="#000000" font-size="6" text-anchor="middle" dominant-baseline="middle" font-family="monospace" >8,10</text>
<text x="238" y="262.3" fill="#000000" font-size="6" text-anchor="middle" dominant-baseline="middle" font-family="monospace" >9,10</text>
<text x="262" y="262.3" fill="#000000" font-size="6" text-anchor="middle" dominant-baseline="middle" font-family="monospace" >10,10</text>
<text x="286" y="262.3" fill="#000000" font-size="6" text-anchor="middle" dominant-baseline="middle" font-family="monospace" >11,10</text>
<text x="22" y="286.3" fill="#000000" font-size="6" text-anchor="middle" dominant-baseline="middle" font-family="monospace" >0,11</text>
<text x="46" y="286.3" fill="#000000" font-size="6" text-anchor="middle" dominant-baseline="middle" font-family="monospace" >1,11</text>
<text x="70" y="286.3" fill="#000000" font-size="6" text-anchor="middle" dominant-baseline="middle" font-family="monospace" >2,11</text>
<text x="94" y="286.3" fill="#000000" font-size="6" text-anchor="middle" dominant-baseline="middle" font-family="monospace" >3,11</text>
<text x="118" y="286.3" fill="#000000" font-size="6" text-anchor="middle" dominant-baseline="middle" font-family="monospace" >4,11</text>
<text x="142" y="286.3" fill="#000000" font-size="6" text-anchor="middle" dominant-baseline="middle" font-family="monospace" >5,11</text>
<text x="166" y="286.3" fill="#000000" font-size="6" text-anchor="middle" dominant-baseline="middle" font-family="monospace" >6,11</text>
<text x="190" y="286.3" fill="#000000" font-size="6" text-anchor="middle" dominant-baseline="middle" font-family="monospace" >7,11</text>
<text x="214" y="286.3" fill="#000000" font-size="6" text-anchor="middle" dominant-baseline="middle" font-family="monospace" >8,11</text>
<text x="238" y="286.3" fill="#000000" font-size="6" text-anchor="middle" dominant-baseline="middle" font-family="monospace" >9,11</text>
<text x="262" y="286.3" fill="#000000" font-size="6" text-anchor="middle" dominant-baseline="middle" font-family="monospace" >10,11</text>
<text x="286" y="286.3" fill="#000000" font-size="6" text-anchor="middle" dominant-baseline="middle" font-family="monospace" >11,11</text>
</g>
<g id="walls" stroke="black" stroke-width="2" fill="none">
<line x1="10" y1="10" x2="34" y2="10"/>
<line x1="10" y1="10" x2="10" y2="34"/>
<line x1="34" y1="10" x2="58" y2="10"/>
<line x1="58" y1="10" x2="82" y2="10"/>
<line x1="82" y1="10" x2="106" y2="10"/>
<line x1="106" y1="10" x2="130" y2="10"/>
<line x1="130" y1="10" x2="154" y2="10"/>
<line x1="154" y1="10" x2="178" y2="10"/>
<line x1="178" y1="10" x2="202" y2="10"/>
<line x1="202" y1="10" x2="226" y2="10"/>
<line x1="226" y1="10" x2="250" y2="10"/>
<line x1="250" y1="10" x2="274" y2="10"/>
<line x1="274" y1="10" x2="298" y2="10"/>
<line x1="10" y1="34" x2="10" y2="58"/>
<line x1="178" y1="34" x2="178" y2="58"/>
<line x1="202" y1="34" x2="226" y2="34"/>
<line x1="226" y1="34" x2="250" y2="34"/>
<line x1="10" y1="58" x2="10" y2="82"/>
<line x1="34" y1="58" x2="58" y2="58"/>
<line x1="58" y1="58" x2="82" y2="58"/>
<line x1="82" y1="58" x2="106" y2="58"/>
<line x1="154" y1="58" x2="178" y2="58"/>
<line x1="250" y1="58" x2="274" y2="58"/>
<line x1="10" y1="82" x2="10" y2="106"/>
<line x1="34" y1="82" x2="58" y2="82"/>
<line x1="106" y1="82" x2="106" y2="106"/>
<line x1="178" y1="82" x2="178" y2="106"/>
<line x1="202" y1="82" x2="202" y2="106"/>
<line x1="226" y1="82" x2="250" y2="82"/>
<line x1="10" y1="106" x2="10" y2="130"/>
<line x1="58" y1="106" x2="58" y2="130"/>
<line x1="106" y1="106" x2="130" y2="106"/>
<line x1="130" y1="106" x2="130" y2="130"/>
<line x1="154" y1="106" x2="178" y2="106"/>
<line x1="202" y1="106" x2="202" y2="130"/>
<line x1="226" y1="106" x2="250" y2="106"/>
<line x1="250" y1="106" x2="250" y2="130"/>
<line x1="10" y1="130" x2="10" y2="154"/>
<line x1="106" y1="130" x2="106" y2="154"/>
<line x1="178" y1="130" x2="178" y2="154"/>
<line x1="250" y1="130" x2="274" y2="130"/>
<line x1="10" y1="154" x2="10" y2="178"/>
<line x1="58" y1="154" x2="58" y2="178"/>
<line x1="82" y1="154" x2="82" y2="178"/>
<line x1="106" y1="154" x2="130" y2="154"/>
<line x1="130" y1="154" x2="154" y2="154"/>
<line x1="226" y1="154" x2="250" y2="154"/>
<line x1="274" y1="154" x2="274" y2="178"/>
<line x1="10" y1="178" x2="10" y2="202"/>
<line x1="34" y1="178" x2="34" y2="202"/>
<line x1="58" y1="178" x2="58" y2="202"/>
<line x1="82" y1="178" x2="82" y2="202"/>
<line x1="106" y1="178" x2="130" y2="178"/>
<line x1="130" y1="178" x2="130" y2="202"/>
<line x1="154" y1="178" x2="178" y2="178"/>
<line x1="178" y1="178" x2="202" y2="178"/>
<line x1="202" y1="178" x2="226" y2="178"/>
<line x1="250" y1="178" x2="274" y2="178"/>
<line x1="10" y1="202" x2="10" y2="226"/>
<line x1="34" y1="202" x2="58" y2="202"/>
<line x1="58" y1="202" x2="82" y2="202"/>
<line x1="82" y1="202" x2="106" y2="202"/>
<line x1="82" y1="202" x2="82" y2="226"/>
<line x1="130" y1="202" x2="130" y2="226"/>
<line x1="178" y1="202" x2="202" y2="202"/>
<line x1="10" y1="226" x2="10" y2="250"/>
<line x1="82" y1="226" x2="106" y2="226"/>
<line x1="82" y1="226" x2="82" y2="250"/>
<line x1="106" y1="226" x2="130" y2="226"/>
<line x1="154" y1="226" x2="178" y2="226"/>
<line x1="202" y1="226" x2="202" y2="250"/>
<line x1="226" y1="226" x2="250" y2="226"/>
<line x1="10" y1="250" x2="10" y2="274"/>
<line x1="34" y1="250" x2="58" y2="250"/>
<line x1="82" y1="250" x2="106" y2="250"/>
<line x1="154" y1="250" x2="178" y2="250"/>
<line x1="178" y1="250" x2="178" y2="274"/>
<line x1="226" y1="250" x2="226" y2="274"/>
<line x1="274" y1="250" x2="274" y2="274"/>
<line x1="10" y1="274" x2="10" y2="298"/>
<line x1="82" y1="274" x2="106" y2="274"/>
<line x1="106" y1="274" x2="130" y2="274"/>
<line x1="154" y1="274" x2="154" y2="298"/>
<line x1="226" y1="274" x2="250" y2="274"/>
</g>
<g id="players" >
<circle cx="190" cy="238" r="8" fill="#1f77b4" stroke="black"/>
<text x="190" y="238.6" fill="white" font-size="12" text-anchor="middle" dominant-baseline="middle" font-family="monospace" font-weight="bold">A</text>
<circle cx="46" cy="286" r="8" fill="#ff7f0e" stroke="black"/>
<text x="46" y="286.6" fill="white" font-size="12" text-anchor="middle" dominant-baseline="middle" font-family="monospace" font-weight="bold">B</text>
</g>
<g id="maze-border" >
<rect x="10" y="10" width="288" height="288" fill="none" stroke="black" stroke-width="2"/>
</g>
</svg>

